<mxfile host="app.diagrams.net" modified="2024-04-29T15:50:56.879Z" agent="Mozilla/5.0 (Windows NT 10.0; Win64; x64) AppleWebKit/537.36 (KHTML, like Gecko) Chrome/124.0.0.0 Safari/537.36 Edg/124.0.0.0" version="24.3.1" etag="tbwIb7z0BQ_ulWrSGgXJ" type="github">
  <diagram name="Page-1" id="2EvmP984-oZq86Z-hD94">
    <mxGraphModel>
      <root>
        <mxCell id="0" />
        <mxCell id="1" parent="0" />
      </root>
    </mxGraphModel>
  </diagram>
</mxfile>
